# xmcd
#
# Track frame offsets:
#	150
#	20097
#	37525
#	58195
#	73362
#	98097
#	111407
#	125465
#	139722
#	159634
#	176622
#
# Disc length: 2620 seconds
#
# Revision: 0
# Processed by: cddbd v1.4PL0 Copyright (c) Steve Scherf et al.
# Submitted via: EasyCDDAExtractor 4.5.2.1
#
DISCID=9a0a3a0b
DTITLE=The hitchin post - roadmap
DYEAR=1995
DGENRE=Country
TTITLE0=drown
TTITLE1=kerosene
TTITLE2=weeping willows
TTITLE3=latest heartthrob
TTITLE4=poor lonesome boy
TTITLE5=meadow saffron
TTITLE6=summer´s coming soon
TTITLE7=river of no return Pt.2
TTITLE8=true love
TTITLE9=ride
TTITLE10=one and one
EXTD=
EXTT0=
EXTT1=
EXTT2=
EXTT3=
EXTT4=
EXTT5=
EXTT6=
EXTT7=
EXTT8=
EXTT9=
EXTT10=
PLAYORDER=
